<svg width="100" height="100" viewBox="0 0 100 100" fill="none" xmlns="http://www.w3.org/2000/svg">
<path d="M27.3042 55.6372C28.4744 74.3601 44.4669 89.5725 63.97 89.5725C75.2818 89.5725 85.4234 84.5017 92.0544 76.7005C92.0544 76.7005 90.8842 77.4806 89.324 76.7005C89.324 76.7005 39.7862 57.9776 29.6446 54.467H28.8644C27.6943 54.467 27.3042 55.2471 27.3042 55.6372ZM43.2967 24.0422L94.7849 47.836C99.4656 50.1763 99.8557 47.0558 99.8557 47.0558C96.7352 30.2832 81.5228 17.8012 63.97 17.8012C56.1688 17.8012 49.1476 20.1416 43.2967 24.0422Z" fill="#1258A9"/>
<path fill-rule="evenodd" clip-rule="evenodd" d="M93.759 62.8865C93.759 62.8865 14.5765 27.3909 13.7964 27.0008C11.456 26.2207 8.33552 28.171 10.2858 30.9014C10.6759 31.2915 16.9169 40.2629 16.9169 40.2629C16.9169 40.2629 14.9666 37.1424 15.3566 35.9722C15.3566 35.1921 16.5268 34.412 16.9169 34.802C17.697 35.1921 92.1988 67.1771 92.1988 67.1771C94.9292 68.3473 97.2696 67.5672 98.0497 65.6169C98.8298 64.0566 99.2199 62.1063 99.6099 60.5461C98.8298 60.9361 97.2696 64.4467 93.759 62.8865ZM99.6099 49.2343C99.6099 50.0144 98.8298 53.915 94.5391 51.9647C93.759 51.9647 5.21503 11.0083 4.04485 10.2281C2.4846 9.44802 -1.41601 10.6182 0.534294 14.5188L7.5554 25.8306C7.5554 25.8306 6.38522 23.1002 5.99516 20.7598C5.99516 19.9797 6.77528 19.1996 7.94546 19.5896C7.94546 19.5896 94.1491 57.4256 94.9292 57.8157C96.8795 58.5958 99.6099 58.2057 100 55.8653V53.525C99.6099 51.9647 99.6099 50.7945 99.6099 49.2343ZM91.4186 71.0777C91.0286 71.0777 23.5479 42.6033 22.7678 42.6033C20.4274 41.8231 18.8672 43.7734 20.4274 46.1138C20.4274 46.5039 25.8883 53.1349 25.8883 53.1349C25.8883 53.1349 24.7181 51.1846 24.7181 50.4045C24.7181 49.6244 25.1082 48.4542 27.0585 49.2343C28.6187 50.0144 89.4683 74.5883 89.4683 74.5883C91.4186 75.3684 92.9789 75.3684 93.759 74.1982C94.9292 72.638 96.0994 70.6877 96.8795 68.7374C95.7093 69.5175 94.1491 72.2479 91.4186 71.0777Z" fill="#EF3627"/>
</svg>
